<svg xmlns="http://www.w3.org/2000/svg" viewBox="0 0 64 64"><defs><linearGradient id="b" x2="1" y2="1"><stop stop-color="#343843"/><stop offset="1" stop-color="#111317"/></linearGradient></defs><rect width="64" height="64" rx="17" fill="url(#b)"/><rect x="1" y="1" width="62" height="62" rx="16" fill="none" stroke="#ffffff" stroke-opacity=".12"/><path d="M9 43C14 33 22 20 28 15C32 11 37 12 40 17C43 23 46 34 54 44C58 51 49 55 43 49L36 42C33 39 30 40 27 43L20 50C12 56 5 50 9 43ZM29 29C25 35 33 37 37 31C41 25 33 22 29 29Z" fill="#f6f5f1" fill-rule="evenodd"/></svg>